<mxfile host="app.diagrams.net" modified="2023-05-05T02:04:16.105Z" agent="Mozilla/5.0 (Macintosh; Intel Mac OS X 10_15_7) AppleWebKit/537.36 (KHTML, like Gecko) Chrome/112.0.0.0 Safari/537.36" etag="m8T9Ie8151SywQyHVHlW" version="21.2.7" type="github">
  <diagram name="第 1 页" id="AXyZzWkZ8pdj3_SeKa3W">
    <mxGraphModel dx="1194" dy="751" grid="1" gridSize="10" guides="1" tooltips="1" connect="1" arrows="1" fold="1" page="1" pageScale="1" pageWidth="827" pageHeight="1169" math="0" shadow="0">
      <root>
        <mxCell id="0" />
        <mxCell id="1" parent="0" />
        <mxCell id="RbALh9PVd331pO-roLNB-1" value="&lt;font color=&quot;#ff3333&quot; style=&quot;font-size: 16px;&quot;&gt;通用中台内部服务网关&lt;br&gt;general-igw&lt;/font&gt;" style="rounded=0;whiteSpace=wrap;html=1;dashed=1;strokeWidth=2;fillColor=#d5e8d4;strokeColor=#82b366;" vertex="1" parent="1">
          <mxGeometry x="130" y="70" width="530" height="90" as="geometry" />
        </mxCell>
        <mxCell id="RbALh9PVd331pO-roLNB-2" value="" style="rounded=0;whiteSpace=wrap;html=1;dashed=1;strokeWidth=2;fillColor=#f5f5f5;fontColor=#333333;strokeColor=#666666;" vertex="1" parent="1">
          <mxGeometry x="130" y="180" width="530" height="390" as="geometry" />
        </mxCell>
      </root>
    </mxGraphModel>
  </diagram>
</mxfile>
